<?xml version="1.0" standalone="no"?>
<!DOCTYPE svg PUBLIC "-//W3C//DTD SVG 20010904//EN"
 "http://www.w3.org/TR/2001/REC-SVG-20010904/DTD/svg10.dtd">
<svg version="1.0" xmlns="http://www.w3.org/2000/svg"
 width="600.000000pt" height="600.000000pt" viewBox="0 0 600.000000 600.000000"
 preserveAspectRatio="xMidYMid meet">

<g transform="translate(0.000000,600.000000) scale(0.100000,-0.100000)"
fill="#000000" stroke="none">
<path d="M2974 5939 c-146 -7 -334 -24 -401 -35 -18 -4 -34 -13 -36 -23 -4
-14 -5 -14 -6 1 -1 13 -8 16 -28 13 -258 -42 -530 -100 -546 -114 -4 -4 -39
-210 -77 -457 -38 -247 -72 -462 -75 -478 l-5 -28 57 7 c31 4 63 9 71 13 13 4
14 -2 9 -36 -4 -23 -10 -61 -13 -83 l-7 -41 72 7 c72 7 72 7 67 -16 -3 -13
-31 -184 -61 -379 -31 -195 -59 -363 -62 -374 -5 -18 4 -18 273 -11 154 4 280
8 281 9 1 1 32 179 68 396 36 217 67 405 70 417 5 20 12 22 78 25 l72 3 15 85
15 85 72 3 c66 3 73 5 78 25 3 12 23 123 45 247 45 249 128 692 137 728 3 12
1 21 -3 20 -5 0 -77 -4 -160 -9z m-447 -121 c-3 -7 -5 -2 -5 12 0 14 2 19 5
13 2 -7 2 -19 0 -25z m-10 -60 c-3 -7 -5 -2 -5 12 0 14 2 19 5 13 2 -7 2 -19
0 -25z m443 10 c0 -22 -117 -669 -122 -673 -2 -3 -36 -7 -75 -11 l-71 -7 -13
-83 -12 -83 -56 -6 c-31 -3 -65 -7 -76 -8 -18 -2 -25 -36 -87 -415 -36 -228
-68 -415 -70 -417 -2 -1 -67 -5 -146 -7 l-143 -5 5 26 c10 48 125 785 123 787
-1 1 -31 -2 -66 -7 -35 -5 -66 -7 -68 -5 -3 3 0 37 6 77 7 39 9 74 7 77 -3 3
-34 0 -68 -5 -35 -6 -64 -10 -65 -9 -2 2 21 152 49 334 l52 331 50 11 c113 24
236 43 242 37 3 -3 -6 -76 -20 -163 -15 -86 -25 -158 -23 -160 2 -2 66 4 143
14 l139 17 30 170 c27 150 32 170 50 173 23 3 217 19 258 21 16 0 27 -4 27
-11z m-453 -70 c-3 -7 -5 -2 -5 12 0 14 2 19 5 13 2 -7 2 -19 0 -25z m-10 -55
c-3 -10 -5 -4 -5 12 0 17 2 24 5 18 2 -7 2 -21 0 -30z m-10 -60 c-3 -10 -5 -4
-5 12 0 17 2 24 5 18 2 -7 2 -21 0 -30z"/>
<path d="M3176 5933 c-19 -67 -366 -1973 -366 -2012 0 -3 126 -6 280 -6 273
-1 279 0 283 20 4 18 4 18 6 -2 l1 -23 235 -2 c129 -1 254 -2 277 -3 l42 0 18
80 c91 416 239 1077 286 1277 66 279 69 249 -31 263 -26 4 -49 10 -52 14 -2 4
4 39 14 79 21 80 24 76 -63 87 -31 4 -59 11 -61 16 -3 4 1 35 10 68 8 32 15
65 15 73 0 24 -313 63 -637 78 -268 12 -251 13 -257 -7z m564 -173 c52 -6 109
-13 127 -15 l31 -6 -14 -62 c-8 -34 -17 -69 -20 -79 -4 -14 7 -17 71 -23 41
-4 75 -10 75 -14 0 -3 -7 -39 -17 -78 -9 -40 -14 -75 -11 -78 2 -3 33 -8 67
-11 34 -4 64 -10 66 -14 2 -4 -33 -178 -80 -386 -46 -208 -110 -502 -142 -653
l-58 -274 -140 2 c-76 1 -142 4 -146 6 -3 3 0 35 7 72 22 113 34 103 -124 103
l-139 0 -13 -85 -13 -85 -148 0 c-135 0 -147 1 -143 18 2 9 33 181 69 382 79
439 216 1166 241 1279 l5 24 177 -6 c97 -4 220 -11 272 -17z m-343 -1732 c-3
-8 -6 -5 -6 6 -1 11 2 17 5 13 3 -3 4 -12 1 -19z m-10 -50 c-3 -8 -6 -5 -6 6
-1 11 2 17 5 13 3 -3 4 -12 1 -19z"/>
<path d="M3526 5429 c-7 -20 -165 -803 -163 -805 1 -1 65 -5 142 -8 l140 -7
83 392 c46 216 86 398 89 404 3 9 -19 14 -74 19 -43 4 -108 9 -145 13 -53 4
-69 2 -72 -8z m111 -191 c-3 -8 -6 -5 -6 6 -1 11 2 17 5 13 3 -3 4 -12 1 -19z
m-10 -50 c-3 -8 -6 -5 -6 6 -1 11 2 17 5 13 3 -3 4 -12 1 -19z m-10 -50 c-3
-7 -5 -2 -5 12 0 14 2 19 5 13 2 -7 2 -19 0 -25z m-10 -50 c-3 -7 -5 -2 -5 12
0 14 2 19 5 13 2 -7 2 -19 0 -25z m-10 -40 c-3 -8 -6 -5 -6 6 -1 11 2 17 5 13
3 -3 4 -12 1 -19z m-10 -50 c-3 -8 -6 -5 -6 6 -1 11 2 17 5 13 3 -3 4 -12 1
-19z m-10 -50 c-3 -8 -6 -5 -6 6 -1 11 2 17 5 13 3 -3 4 -12 1 -19z m-10 -50
c-3 -7 -5 -2 -5 12 0 14 2 19 5 13 2 -7 2 -19 0 -25z m-10 -50 c-3 -7 -5 -2
-5 12 0 14 2 19 5 13 2 -7 2 -19 0 -25z m-10 -50 c-3 -7 -5 -2 -5 12 0 14 2
19 5 13 2 -7 2 -19 0 -25z"/>
<path d="M4405 5788 c-22 -71 -243 -1017 -346 -1483 -43 -198 -81 -369 -84
-381 -5 -21 -1 -21 173 -28 97 -3 223 -9 279 -12 93 -6 101 -5 106 12 4 15 5
16 6 2 1 -18 5 -18 354 -39 103 -6 190 -9 193 -7 2 3 43 149 90 324 81 304
255 933 308 1114 19 64 22 86 13 93 -7 4 -69 37 -138 72 -235 119 -486 217
-753 295 -183 54 -195 56 -201 38z m309 -219 c211 -63 597 -210 629 -239 5 -4
-28 -137 -72 -296 -68 -249 -171 -630 -254 -949 -16 -60 -29 -90 -38 -90 -104
2 -261 19 -265 30 -5 12 97 424 230 929 31 116 54 212 51 214 -6 7 -238 72
-255 72 -13 0 -41 -101 -138 -497 -67 -274 -133 -543 -146 -598 l-24 -100
-143 3 c-78 1 -144 4 -145 5 -2 2 5 41 16 87 11 47 53 231 94 410 68 296 239
1009 252 1053 7 24 29 20 208 -34z m103 -571 c-3 -8 -6 -5 -6 6 -1 11 2 17 5
13 3 -3 4 -12 1 -19z m-10 -40 c-3 -8 -6 -5 -6 6 -1 11 2 17 5 13 3 -3 4 -12
1 -19z m-30 -110 c-3 -8 -6 -5 -6 6 -1 11 2 17 5 13 3 -3 4 -12 1 -19z m-10
-40 c-3 -8 -6 -5 -6 6 -1 11 2 17 5 13 3 -3 4 -12 1 -19z m-10 -40 c-3 -8 -6
-5 -6 6 -1 11 2 17 5 13 3 -3 4 -12 1 -19z m-10 -40 c-3 -8 -6 -5 -6 6 -1 11
2 17 5 13 3 -3 4 -12 1 -19z m-10 -40 c-3 -8 -6 -5 -6 6 -1 11 2 17 5 13 3 -3
4 -12 1 -19z m-40 -150 c-3 -8 -6 -5 -6 6 -1 11 2 17 5 13 3 -3 4 -12 1 -19z
m-10 -40 c-3 -8 -6 -5 -6 6 -1 11 2 17 5 13 3 -3 4 -12 1 -19z m-10 -40 c-3
-8 -6 -5 -6 6 -1 11 2 17 5 13 3 -3 4 -12 1 -19z m-10 -40 c-3 -8 -6 -5 -6 6
-1 11 2 17 5 13 3 -3 4 -12 1 -19z m-10 -40 c-3 -8 -6 -5 -6 6 -1 11 2 17 5
13 3 -3 4 -12 1 -19z m-10 -40 c-3 -8 -6 -5 -6 6 -1 11 2 17 5 13 3 -3 4 -12
1 -19z m-10 -40 c-3 -8 -6 -5 -6 6 -1 11 2 17 5 13 3 -3 4 -12 1 -19z m-10
-40 c-3 -8 -6 -5 -6 6 -1 11 2 17 5 13 3 -3 4 -12 1 -19z m-10 -40 c-3 -8 -6
-5 -6 6 -1 11 2 17 5 13 3 -3 4 -12 1 -19z m-10 -40 c-3 -8 -6 -5 -6 6 -1 11
2 17 5 13 3 -3 4 -12 1 -19z m-10 -40 c-3 -8 -6 -5 -6 6 -1 11 2 17 5 13 3 -3
4 -12 1 -19z m-10 -40 c-3 -8 -6 -5 -6 6 -1 11 2 17 5 13 3 -3 4 -12 1 -19z
m-10 -40 c-3 -8 -6 -5 -6 6 -1 11 2 17 5 13 3 -3 4 -12 1 -19z m-10 -40 c-3
-8 -6 -5 -6 6 -1 11 2 17 5 13 3 -3 4 -12 1 -19z m-10 -50 c-3 -8 -6 -5 -6 6
-1 11 2 17 5 13 3 -3 4 -12 1 -19z m-10 -40 c-3 -8 -6 -5 -6 6 -1 11 2 17 5
13 3 -3 4 -12 1 -19z"/>
<path d="M1785 5735 c-228 -70 -461 -163 -669 -267 -128 -64 -273 -145 -280
-157 -2 -3 -27 -132 -56 -286 -68 -371 -128 -657 -201 -958 -34 -137 -59 -250
-57 -252 2 -2 111 5 243 16 132 10 252 19 267 19 20 0 28 6 31 23 l4 22 2 -23
c1 -22 5 -23 39 -18 20 3 143 11 273 17 l235 12 63 391 c87 550 231 1473 231
1485 0 15 0 15 -125 -24z m-95 -563 c-33 -215 -60 -392 -60 -394 0 -3 -31 -11
-70 -18 -66 -13 -70 -15 -75 -44 -12 -67 -43 -261 -41 -262 0 -1 29 3 64 9 34
5 65 8 67 5 6 -5 -64 -440 -71 -448 -5 -4 -276 -30 -281 -26 -1 0 9 62 22 136
13 74 22 137 19 139 -4 4 -255 -36 -260 -42 -1 -1 -13 -60 -26 -132 l-24 -130
-138 -16 -138 -15 5 30 c2 17 31 159 65 316 33 157 86 427 117 600 30 173 59
328 63 345 7 27 22 37 152 97 80 37 192 86 250 109 146 59 414 148 418 139 2
-4 -24 -183 -58 -398z m-583 -1104 c-3 -8 -6 -5 -6 6 -1 11 2 17 5 13 3 -3 4
-12 1 -19z m-10 -50 c-3 -8 -6 -5 -6 6 -1 11 2 17 5 13 3 -3 4 -12 1 -19z
m-10 -50 c-3 -8 -6 -5 -6 6 -1 11 2 17 5 13 3 -3 4 -12 1 -19z m-10 -60 c-3
-7 -5 -2 -5 12 0 14 2 19 5 13 2 -7 2 -19 0 -25z"/>
<path d="M1270 5118 c-63 -23 -116 -42 -117 -42 -3 -2 -73 -420 -70 -422 1 -1
61 14 132 33 l130 35 33 212 c18 116 33 214 32 219 0 12 -22 7 -140 -35z m-13
-180 c-3 -7 -5 -2 -5 12 0 14 2 19 5 13 2 -7 2 -19 0 -25z m-10 -60 c-3 -7 -5
-2 -5 12 0 14 2 19 5 13 2 -7 2 -19 0 -25z"/>
<path d="M2892 3469 c-74 -12 -130 -43 -138 -76 -16 -61 34 -85 241 -118 88
-13 178 -30 200 -36 98 -28 151 -75 143 -130 -4 -24 -2 -26 13 -18 25 13 49
50 49 74 0 76 -102 118 -374 155 -137 18 -196 36 -196 59 0 17 37 40 80 50
136 31 330 -10 412 -87 15 -14 30 -23 34 -20 3 3 2 33 -2 66 -6 55 -9 61 -33
67 -114 24 -326 31 -429 14z"/>
<path d="M2648 3384 c-31 -35 -32 -68 -3 -102 35 -41 109 -68 247 -87 229 -32
282 -49 276 -88 -7 -49 -157 -82 -267 -58 -73 15 -157 59 -191 98 -49 55 -57
44 -44 -64 l7 -51 61 -11 c103 -19 285 -25 360 -12 146 25 207 94 141 155 -30
28 -103 47 -295 76 -213 33 -257 53 -269 124 -6 37 -7 37 -23 20z"/>
<path d="M1928 2228 c-339 -428 -323 -407 -310 -420 17 -17 39 -3 76 49 l34
48 241 -3 242 -3 35 -48 35 -49 102 -7 c56 -3 166 -5 245 -3 l143 3 -285 383
c-157 210 -287 382 -290 382 -2 0 -123 -150 -268 -332z m157 -153 c54 -75 96
-137 94 -139 -2 -2 -97 -1 -211 2 l-207 5 66 86 c115 149 148 188 154 185 4
-2 50 -65 104 -139z"/>
<path d="M2838 2143 c2 -197 6 -359 7 -361 1 -1 100 -5 220 -9 l218 -6 -5 64
-5 64 141 0 c124 0 148 3 199 24 76 30 135 76 170 133 99 160 -16 349 -248
408 -90 23 -323 40 -556 40 l-147 0 6 -357z m653 292 c170 -34 279 -136 279
-262 0 -97 -66 -177 -187 -224 -48 -19 -78 -23 -168 -23 -60 0 -118 3 -127 7
-17 6 -18 28 -18 267 l0 260 78 -6 c42 -3 107 -12 143 -19z"/>
<path d="M3948 2123 c2 -197 5 -359 7 -361 1 -1 98 -5 217 -9 l214 -6 -4 359
c-2 197 -6 361 -9 364 -3 3 -100 7 -217 8 l-212 4 4 -359z"/>
</g>
</svg>
